<svg xmlns="http://www.w3.org/2000/svg" viewBox="0 0 28 28" id="Github--Streamline-Font-Awesome" height="28" width="28">
  <desc>
    Github Streamline Icon: https://streamlinehq.com
  </desc>
<!--! Font Awesome Free 6.5.2 by @fontawesome - https://fontawesome.com License - https://fontawesome.com/license/free (Icons: CC BY 4.0, Fonts: SIL OFL 1.1, Code: MIT License) Copyright 2024 Fonticons, Inc.-->
  <path d="M9.458016129032258 22.165409677419355c0 0.11064516129032258 -0.12724193548387097 0.19916129032258065 -0.2876774193548387 0.19916129032258065 -0.18256451612903224 0.016596774193548387 -0.30980645161290327 -0.07191935483870968 -0.30980645161290327 -0.19916129032258065 0 -0.11064516129032258 0.12724193548387097 -0.19916129032258065 0.2876774193548387 -0.19916129032258065 0.16596774193548386 -0.016596774193548387 0.30980645161290327 0.07191935483870968 0.30980645161290327 0.19916129032258065Zm-1.7205322580645162 -0.24895161290322582c-0.03872580645161291 0.11064516129032258 0.07191935483870968 0.23788709677419356 0.23788709677419356 0.27108064516129027 0.14383870967741935 0.05532258064516129 0.30980645161290327 0 0.34299999999999997 -0.11064516129032258s-0.07191935483870968 -0.23788709677419356 -0.23788709677419356 -0.2876774193548387c-0.14383870967741935 -0.03872580645161291 -0.3042741935483871 0.016596774193548387 -0.34299999999999997 0.12724193548387097Zm2.4452580645161293 -0.09404838709677418c-0.16043548387096773 0.03872580645161291 -0.27108064516129027 0.14383870967741935 -0.25448387096774194 0.27108064516129027 0.016596774193548387 0.11064516129032258 0.16043548387096773 0.18256451612903224 0.3264032258064516 0.14383870967741935 0.16043548387096773 -0.03872580645161291 0.27108064516129027 -0.14383870967741935 0.25448387096774194 -0.25448387096774194 -0.016596774193548387 -0.10511290322580645 -0.16596774193548386 -0.17703225806451614 -0.3264032258064516 -0.16043548387096773Zm3.6402258064516126 -21.199612903225805c-7.67324193548387 0 -13.542967741935483 5.8254677419354834 -13.542967741935483 13.498709677419354 0 6.135274193548387 3.8615161290322577 11.385387096774194 9.377177419354839 13.23316129032258 0.7081290322580646 0.12724193548387097 0.9570806451612903 -0.30980645161290327 0.9570806451612903 -0.6694032258064516 0 -0.34299999999999997 -0.016596774193548387 -2.235032258064516 -0.016596774193548387 -3.396806451612903 0 0 -3.87258064516129 0.8298387096774192 -4.685822580645161 -1.6486129032258063 0 0 -0.6306774193548387 -1.6098870967741936 -1.5379677419354838 -2.0248064516129034 0 0 -1.2668870967741934 -0.8685645161290322 0.08851612903225807 -0.8519677419354839 0 0 1.3775322580645162 0.11064516129032258 2.1354516129032257 1.4273225806451613 1.2115645161290323 2.1354516129032257 3.2419032258064515 1.5213709677419354 4.033016129032258 1.1562419354838709 0.12724193548387097 -0.8851612903225806 0.4868387096774194 -1.4992419354838709 0.8851612903225806 -1.8643709677419356 -3.092532258064516 -0.34299999999999997 -6.212725806451613 -0.7911129032258064 -6.212725806451613 -6.113145161290323 0 -1.5213709677419354 0.4204516129032258 -2.284822580645161 1.3056129032258064 -3.2585 -0.14383870967741935 -0.3595967741935484 -0.6140806451612904 -1.8422419354838708 0.14383870967741935 -3.7564032258064515 1.1562419354838709 -0.3595967741935484 3.817258064516129 1.4937096774193548 3.817258064516129 1.4937096774193548 1.1064516129032258 -0.30980645161290327 2.2958870967741936 -0.47024193548387094 3.4742580645161287 -0.47024193548387094s2.3678064516129034 0.16043548387096773 3.4742580645161287 0.47024193548387094c0 0 2.661016129032258 -1.858838709677419 3.817258064516129 -1.4937096774193548 0.7579193548387096 1.9196935483870967 0.2876774193548387 3.396806451612903 0.14383870967741935 3.7564032258064515 0.8851612903225806 0.9792096774193548 1.4273225806451613 1.7426612903225807 1.4273225806451613 3.2585 0 5.338629032258064 -3.2585 5.764612903225807 -6.351032258064516 6.113145161290323 0.5089677419354839 0.4370483870967742 0.9404838709677419 1.2668870967741934 0.9404838709677419 2.5669677419354837 0 1.8643709677419356 -0.016596774193548387 4.171322580645161 -0.016596774193548387 4.6249677419354835 0 0.3595967741935484 0.25448387096774194 0.7966451612903226 0.9570806451612903 0.6694032258064516 5.532258064516129 -1.8367096774193548 9.283129032258064 -7.086822580645161 9.283129032258064 -13.222096774193547 0 -7.67324193548387 -6.223790322580645 -13.498709677419354 -13.897032258064515 -13.498709677419354Zm-8.165612903225806 19.08075806451613c-0.07191935483870968 0.05532258064516129 -0.05532258064516129 0.18256451612903224 0.03872580645161291 0.2876774193548387 0.08851612903225807 0.08851612903225807 0.21575806451612903 0.12724193548387097 0.2876774193548387 0.05532258064516129 0.07191935483870968 -0.05532258064516129 0.05532258064516129 -0.18256451612903224 -0.03872580645161291 -0.2876774193548387 -0.08851612903225807 -0.08851612903225807 -0.21575806451612903 -0.12724193548387097 -0.2876774193548387 -0.05532258064516129Zm-0.5974838709677419 -0.44811290322580644c-0.03872580645161291 0.07191935483870968 0.016596774193548387 0.16043548387096773 0.12724193548387097 0.21575806451612903 0.08851612903225807 0.05532258064516129 0.19916129032258065 0.03872580645161291 0.23788709677419356 -0.03872580645161291 0.03872580645161291 -0.07191935483870968 -0.016596774193548387 -0.16043548387096773 -0.12724193548387097 -0.21575806451612903 -0.11064516129032258 -0.033193548387096775 -0.19916129032258065 -0.016596774193548387 -0.23788709677419356 0.03872580645161291Zm1.7924516129032257 1.9694838709677418c-0.08851612903225807 0.07191935483870968 -0.05532258064516129 0.23788709677419356 0.07191935483870968 0.34299999999999997 0.12724193548387097 0.12724193548387097 0.2876774193548387 0.14383870967741935 0.3595967741935484 0.05532258064516129 0.07191935483870968 -0.07191935483870968 0.03872580645161291 -0.23788709677419356 -0.07191935483870968 -0.34299999999999997 -0.12170967741935484 -0.12724193548387097 -0.2876774193548387 -0.14383870967741935 -0.3595967741935484 -0.05532258064516129Zm-0.6306774193548387 -0.813241935483871c-0.08851612903225807 0.05532258064516129 -0.08851612903225807 0.19916129032258065 0 0.3264032258064516s0.23788709677419356 0.18256451612903224 0.30980645161290327 0.12724193548387097c0.08851612903225807 -0.07191935483870968 0.08851612903225807 -0.21575806451612903 0 -0.34299999999999997 -0.07745161290322582 -0.12724193548387097 -0.22129032258064515 -0.18256451612903224 -0.30980645161290327 -0.11064516129032258Z" fill="#c2c0c9" stroke-width="0.0565"></path>
</svg>